<?xml version="1.0" encoding="utf-8"?>
<!-- Generator: Adobe Illustrator 24.0.0, SVG Export Plug-In . SVG Version: 6.00 Build 0)  -->
<svg version="1.1" id="Layer_1" xmlns="http://www.w3.org/2000/svg" xmlns:xlink="http://www.w3.org/1999/xlink" x="0px" y="0px"
	 viewBox="0 0 800 800" style="enable-background:new 0 0 800 800;" xml:space="preserve">
<style type="text/css">
	.st0{fill:#FF421D;}
	.st1{fill:#FF6536;}
	.st2{fill:#FFA900;}
</style>
<g>
	<g>
		<path class="st0" d="M408.1,0c0,0-178,44.4-206.4,385.5c-6.2,75-117.9,73.3-120.4-1.9c0-1-0.1-2.1-0.1-3.2
			c0,0-75,417.9,326.9,417.9c0,0,316.1,26.8,316.1-348.3c0,0-21.4,58.9-112.5,58.9c0,0,144.7-112.5-10.7-278.6
			c0,0-10.7,80.4-85.7,80.4C515.3,310.8,322.4,337.6,408.1,0z"/>
		<path class="st1" d="M360,26.4C305.1,65.3,220.6,161,201.8,387.1c-6.2,75-117.9,73.3-120.4-1.9c0-1-0.1-2.1-0.1-3.2
			c0,0-68.8,383.6,278.7,415.8V26.4z"/>
	</g>
	<path class="st2" d="M402.7,375.2c0,0-94.6,23.6-109.7,205c-3.3,39.9-62.7,39-64.1-1c0-0.6,0-1.1,0-1.7c0,0-39.9,222.3,173.8,222.3
		c0,0,168.1,14.2,168.1-185.2c0,0-11.4,31.3-59.8,31.3c0,0,76.9-59.8-5.7-148.2c0,0-5.7,42.7-45.6,42.7
		C459.7,540.5,357.1,554.7,402.7,375.2z"/>
</g>
</svg>
