<?xml version="1.0" encoding="utf-8"?>
<!-- Generator: Adobe Illustrator 24.0.0, SVG Export Plug-In . SVG Version: 6.00 Build 0)  -->
<svg version="1.1" id="Layer_1" xmlns="http://www.w3.org/2000/svg" xmlns:xlink="http://www.w3.org/1999/xlink" x="0px" y="0px"
	 viewBox="0 0 3672.3 800" style="enable-background:new 0 0 3672.3 800;" xml:space="preserve">
<style type="text/css">
	.st0{fill:#FF421D;}
	.st1{fill:#FF6536;}
	.st2{fill:#FFA900;}
	.st3{fill:#FFFFFF;}
</style>
<g>
	<g>
		<path class="st0" d="M408.1,0c0,0-178,44.4-206.4,385.5c-6.2,75-117.9,73.3-120.4-1.9c0-1-0.1-2.1-0.1-3.2
			c0,0-75,417.9,326.9,417.9c0,0,316.1,26.8,316.1-348.3c0,0-21.4,58.9-112.5,58.9c0,0,144.7-112.5-10.7-278.6
			c0,0-10.7,80.4-85.7,80.4C515.3,310.8,322.4,337.6,408.1,0z"/>
		<path class="st1" d="M360,26.4C305.1,65.3,220.6,161,201.8,387.1c-6.2,75-117.9,73.3-120.4-1.9c0-1-0.1-2.1-0.1-3.2
			c0,0-68.8,383.6,278.7,415.8V26.4z"/>
	</g>
	<path class="st2" d="M402.7,375.2c0,0-94.6,23.6-109.7,205c-3.3,39.9-62.7,39-64.1-1c0-0.6,0-1.1,0-1.7c0,0-39.9,222.3,173.8,222.3
		c0,0,168.1,14.2,168.1-185.2c0,0-11.4,31.3-59.8,31.3c0,0,76.9-59.8-5.7-148.2c0,0-5.7,42.7-45.6,42.7
		C459.7,540.5,357.1,554.7,402.7,375.2z"/>
</g>
<g>
	<path class="st3" d="M1224,168.6l-12.7,61.3H993.8l-31.2,152.7h138.2l-12.7,61.3H948.7l-39.9,187.4h-65.9l98.3-462.7H1224z"/>
	<path class="st3" d="M1460.6,631.4h-260.9l98.9-462.7h66.5l-85,401.4h193.8L1460.6,631.4z"/>
	<path class="st3" d="M1833,631.4h-67.1l-6.4-107.6h-132.5l-52.6,107.6h-70l227.3-462.7h70L1833,631.4z M1744.5,282.6l-87.9,179.9
		h98.9L1744.5,282.6z"/>
	<path class="st3" d="M1925.6,631.4h-67.1l107-462.7h60.7l41.1,216.9l134.2-216.9h63l-90.2,462.7h-66.5L2165,341l-91.4,156.2h-56.1
		L1993.8,341L1925.6,631.4z"/>
	<path class="st3" d="M2611.5,168.6l-12.7,61.3h-217.5L2355.9,356h138.2l-13.3,61.3h-139.4L2310.2,570h216.3l-12.7,61.3h-282.8
		l97.7-462.7H2611.5z"/>
	<path class="st3" d="M2572.2,631.4l98.9-462.7h125.5c43.2,0,74.7,6.8,94.6,20.2c19.9,13.5,29.8,35.1,29.8,64.8
		c0,12.7-1.7,27-5.2,42.8c-5,23.1-11.2,41-18.5,53.5c-7.3,12.5-18.5,24-33.5,34.4c10,6.9,17.4,15.4,22.3,25.4
		c4.8,10,7.2,22.9,7.2,38.8c0,14.7-1.9,31.4-5.8,50.3c-6.9,32.8-16.9,58.7-29.8,77.8c-12.9,19.1-30.4,33-52.3,41.6
		c-22,8.7-50.7,13-86.2,13H2572.2z M2726,570c20.8,0,37.4-2.5,49.7-7.5c12.3-5,22.1-13.3,29.2-24.9c7.1-11.6,13-28.1,17.6-49.7
		c3.8-18.1,5.8-31,5.8-38.8c0-9.6-2.1-16.7-6.4-21.1c-4.3-4.4-10.7-7.3-19.4-8.7c-8.7-1.3-21.5-2-38.5-2h-79.8L2652.6,570H2726z
		 M2757.3,356c22.4,0,39.2-1.6,50.6-4.9c11.4-3.3,20.3-9.7,26.9-19.4c6.6-9.6,12.1-24.9,16.8-45.7c1.9-10.8,2.9-18.9,2.9-24.3
		c0-12.3-4.6-20.7-13.9-25.2c-9.3-4.4-26.2-6.7-50.9-6.7h-64.8L2697.7,356H2757.3z"/>
	<path class="st3" d="M2966,611.4c-20.1-18.7-30.1-48.5-30.1-89.4c0-27,4.4-60.9,13.3-101.8l9.8-46.3
		c11.2-52.8,24.6-94.6,40.2-125.2c15.6-30.7,35.6-53,59.9-67.1c24.3-14.1,55.3-21.1,93.1-21.1c44,0,75.9,9.3,95.7,27.8
		c19.9,18.5,29.8,48.4,29.8,89.6c0,28.9-4.2,62.9-12.7,101.8l-9.8,46.3c-11.6,52.8-25.2,94.6-40.8,125.2
		c-15.6,30.7-35.6,53-59.9,67.1s-55.3,21.1-93.1,21.1C3017.9,639.5,2986.1,630.1,2966,611.4z M3122.2,563.4
		c15.4-9.8,28.4-26.1,39-48.9c10.6-22.7,20.1-54.2,28.6-94.3l9.8-46.3c8.1-38.2,12.1-68.2,12.1-90.2c0-22.7-4.8-38.8-14.5-48
		c-9.6-9.3-25.4-13.9-47.4-13.9c-23.5,0-42.9,4.9-58.1,14.7c-15.2,9.8-28.1,26-38.7,48.6c-10.6,22.6-20.2,54.1-28.6,94.6l-9.8,46.3
		c-8.5,37.4-12.7,67.5-12.7,90.2c0,22.8,4.8,38.7,14.5,48c9.6,9.3,25.4,13.9,47.4,13.9C3087.3,578.1,3106.8,573.2,3122.2,563.4z"/>
	<path class="st3" d="M3596.5,168.6h75.8l-181.6,233.1l81.6,229.6h-71.7l-59.6-166.6l-129.6,166.6h-75.8l181.6-233.1l-81.6-229.6
		h72.3l59,166L3596.5,168.6z"/>
</g>
</svg>
