<?xml version="1.0" encoding="utf-8"?>
<!-- Generator: Adobe Illustrator 24.0.0, SVG Export Plug-In . SVG Version: 6.00 Build 0)  -->
<svg version="1.1" id="Layer_1" xmlns="http://www.w3.org/2000/svg" xmlns:xlink="http://www.w3.org/1999/xlink" x="0px" y="0px"
	 viewBox="0 0 50 52" style="enable-background:new 0 0 50 52;" xml:space="preserve">
<style type="text/css">
	.st0{fill:#FFFFFF;}
</style>
<title>Logomark</title>
<g>
	<g>
		<path class="st0" d="M22.9,39.5c-0.6,0-1,0.5-1,1V41c0,0.6,0.5,1,1,1c0.6,0,1-0.5,1-1v-0.5C24,40,23.5,39.5,22.9,39.5z"/>
	</g>
</g>
<g>
	<g>
		<path class="st0" d="M48.3,31.7l-3.1-2.5c0.2-1,0.2-2.1,0.2-3.1S45.3,24,45.2,23l3.1-2.5c1-0.8,1.2-2.2,0.6-3.3l-4.2-7.3
			c-0.5-0.8-1.3-1.3-2.2-1.3c-0.3,0-0.6,0.1-0.9,0.2l-3.7,1.4c-1.6-1.3-3.4-2.3-5.4-3.1l-0.7-4c-0.2-1.3-1.3-2.2-2.6-2.2h-8.4
			c-1.3,0-2.4,0.9-2.6,2.2l-0.6,4c-1.9,0.8-3.7,1.8-5.4,3.1L8.5,8.8C8.2,8.7,7.9,8.6,7.6,8.6c-0.9,0-1.8,0.5-2.3,1.3l-4.2,7.3
			c-0.6,1.1-0.4,2.5,0.6,3.3L4.8,23c-0.2,1-0.2,2.1-0.2,3.1s0.1,2.1,0.2,3.1l-3.1,2.5c-1,0.8-1.2,2.2-0.6,3.3l4.2,7.3
			c0.5,0.8,1.3,1.3,2.2,1.3c0.3,0,0.6-0.1,0.9-0.2l3.7-1.4c1.6,1.3,3.4,2.3,5.4,3.1l0.7,3.9c0.2,1.3,1.3,2.2,2.6,2.2h8.4
			c1.3,0,2.4-0.9,2.6-2.2l0.7-3.9c1.9-0.8,3.7-1.8,5.4-3.1l3.7,1.4c0.3,0.1,0.6,0.2,0.9,0.2c0.9,0,1.8-0.5,2.2-1.3l4.2-7.3
			C49.5,33.8,49.3,32.5,48.3,31.7z M29.2,49.1H24v-4.9c0-0.6-0.5-1-1-1c-0.6,0-1,0.5-1,1v4.9h-1.1V37.8c1.3,0.5,2.8,0.7,4.2,0.7l0,0
			c1.5,0,2.9-0.2,4.2-0.7L29.2,49.1L29.2,49.1C29.3,49.1,29.2,49.1,29.2,49.1z M25.1,36.5L25.1,36.5c-5.8,0-10.5-4.7-10.5-10.5
			c0-3.4,1.6-6.5,4.2-8.4v7.5c0,0.4,0.2,0.7,0.5,0.9l5.2,3.1c0.3,0.2,0.7,0.2,1.1,0l5.2-3.1c0.3-0.2,0.5-0.5,0.5-0.9v-7.5
			c2.6,2,4.2,5.1,4.2,8.4c0,2.8-1.1,5.4-3.1,7.4C30.5,35.5,27.9,36.5,25.1,36.5z M47.1,34l-4.2,7.3c-0.1,0.2-0.4,0.3-0.7,0.2
			l-4.3-1.6c-0.3-0.1-0.7-0.1-1,0.2c-1.7,1.4-3.5,2.5-5.6,3.3V37c0.9-0.5,1.8-1.2,2.6-2c2.4-2.4,3.7-5.5,3.7-8.9
			c0-4.7-2.6-9-6.9-11.2c-0.3-0.2-0.7-0.1-1,0c-0.3,0.2-0.5,0.5-0.5,0.9v8.7l-4.1,2.6l-4.2-2.5v-8.7c0-0.4-0.2-0.7-0.5-0.9
			s-0.7-0.2-1,0c-4.2,2.2-6.9,6.4-6.9,11.2c0,3.4,1.3,6.6,3.8,9c0.8,0.8,1.6,1.4,2.5,1.9v6.4c-2.1-0.7-4-1.9-5.7-3.3
			C12.9,40,12.7,40,12.4,40c-0.1,0-0.2,0-0.4,0.1l-4.3,1.6c-0.1,0-0.1,0-0.2,0c-0.2,0-0.4-0.1-0.5-0.3L2.8,34
			c-0.1-0.2-0.1-0.5,0.1-0.7l3.5-2.9c0.3-0.2,0.4-0.6,0.4-1c-0.2-1.1-0.3-2.2-0.3-3.3c0-1.1,0.1-2.2,0.3-3.3c0.1-0.4-0.1-0.7-0.4-1
			l-3.4-3c-0.2-0.2-0.3-0.5-0.1-0.7l4.2-7.3c0.1-0.2,0.4-0.3,0.7-0.2l4.3,1.6c0.3,0.1,0.7,0.1,1-0.2c1.7-1.5,3.6-2.6,5.8-3.3
			c0.4-0.1,0.6-0.4,0.7-0.8l0.8-4.5c0-0.3,0.3-0.5,0.5-0.5h8.4c0.3,0,0.5,0.2,0.5,0.5l0.8,4.5c0.1,0.4,0.3,0.7,0.7,0.8
			c2.1,0.7,4,1.9,5.8,3.3c0.3,0.2,0.7,0.3,1,0.2l4.3-1.6c0.1,0,0.1,0,0.2,0c0.2,0,0.4,0.1,0.5,0.3l4.2,7.3c0.1,0.2,0.1,0.5-0.1,0.7
			l-3.5,2.9c-0.3,0.2-0.4,0.6-0.4,1c0.2,1.1,0.3,2.2,0.3,3.3c0,1.1-0.1,2.2-0.3,3.3c-0.1,0.4,0.1,0.7,0.4,1l3.5,2.9
			C47.2,33.5,47.2,33.8,47.1,34z"/>
	</g>
</g>
</svg>
